<?xml version="1.0" encoding="UTF-8"?>
<svg id="Layer_1" data-name="Layer 1" xmlns="http://www.w3.org/2000/svg" viewBox="0 0 1920 1280">
  <defs>
    <style>
      .cls-1 {
        fill: #39c04b;
      }

      .cls-2 {
        fill: #042172;
      }

      .cls-3 {
        fill: #f71816;
      }

      .cls-4 {
        fill: #1b1b1c;
      }

      .cls-5 {
        fill: #fdc904;
      }
    </style>
  </defs>
  <g>
    <path class="cls-2" d="M225.1,853.41v-270.9c0-2.31.91-4.52,2.52-6.16l91.74-93.23c1.58-1.61,3.74-2.51,5.99-2.51h0c3.84,0,6.95,3.11,6.95,6.95v117.02c0,2.29-.89,4.49-2.49,6.13l-35.95,37.02c-1.97,2.03-3.08,4.75-3.08,7.58h0c0,2.9,1.16,5.68,3.21,7.72l63.94,63.54c1.06,1.05,1.66,2.49,1.66,3.99h0c0,1.5-.6,2.95-1.67,4l-123.59,121.8c-1.81,1.78-4.33,2.2-6.72,1.36-1.12-.39-2.48-2.3-2.5-4.3Z"/>
    <path class="cls-2" d="M548.52,505.3h-89.12c-2.55,0-4.99,1.03-6.76,2.86l-137.12,141.03c-3.41,3.51-3.39,9.11.06,12.58l50.72,51.23c3.25,3.28,8.59,3.14,11.65-.31l174.41-195.76c1.39-1.55,2.15-3.56,2.15-5.65h0c0-3.31-2.68-5.99-5.99-5.99Z"/>
    <path class="cls-1" d="M442.83,664.99l-57.21,59.61c-2.02,2.11-1.99,5.44.06,7.51l122.66,123.84c1.38,1.39,3.25,2.17,5.21,2.17h85.33c1.82,0,3.29-1.47,3.29-3.29v-1.01c0-1.7-.59-3.35-1.67-4.67l-150.97-183.91c-1.7-2.07-4.83-2.2-6.69-.26Z"/>
    <g>
      <path class="cls-5" d="M193.79,520.12h51.83c1.49,0,2.25,1.78,1.22,2.86l-26.84,28.04-54.8-.95,28.58-29.94Z"/>
      <path class="cls-3" d="M294.11,473.61l-28.64,29.91h-55.84l31.28-32.77h51.98c1.49,0,2.25,1.79,1.22,2.86Z"/>
      <path class="cls-4" d="M340.9,424.74l-28.52,29.79h-55.99l31.17-32.65h52.11c1.49,0,2.25,1.78,1.22,2.86Z"/>
    </g>
  </g>
  <g>
    <path class="cls-2" d="M714.97,729.75l-55.6-68.08v68.08h-30.65v-152.8h30.65v68.52l55.6-68.52h36.99l-63.05,75.74,64.8,77.06h-38.75Z"/>
    <path class="cls-2" d="M796.18,723.94c-9.34-5.18-16.67-12.51-22-22-5.33-9.49-7.99-20.43-7.99-32.84s2.74-23.35,8.21-32.84c5.47-9.48,12.95-16.82,22.44-22,9.49-5.18,20.06-7.77,31.74-7.77s22.25,2.59,31.74,7.77c9.48,5.18,16.96,12.51,22.44,22,5.47,9.49,8.21,20.43,8.21,32.84s-2.81,23.35-8.43,32.84c-5.62,9.49-13.21,16.82-22.77,22-9.56,5.18-20.25,7.77-32.07,7.77s-22.19-2.59-31.52-7.77ZM843.36,700.96c4.89-2.7,8.79-6.75,11.71-12.15,2.92-5.4,4.38-11.96,4.38-19.7,0-11.53-3.03-20.39-9.08-26.6-6.06-6.2-13.46-9.3-22.22-9.3s-16.09,3.1-22,9.3c-5.91,6.21-8.87,15.07-8.87,26.6s2.88,20.4,8.65,26.6c5.76,6.2,13.03,9.3,21.78,9.3,5.55,0,10.76-1.35,15.65-4.05Z"/>
    <path class="cls-2" d="M1015.75,620.4c8.9,9.12,13.35,21.86,13.35,38.2v71.15h-30.65v-66.99c0-9.63-2.41-17.04-7.22-22.22-4.82-5.18-11.38-7.77-19.7-7.77s-15.14,2.59-20.03,7.77c-4.89,5.18-7.33,12.59-7.33,22.22v66.99h-30.65v-121.28h30.65v15.11c4.09-5.25,9.3-9.38,15.65-12.37,6.35-2.99,13.32-4.49,20.91-4.49,14.45,0,26.12,4.56,35.02,13.68Z"/>
    <path class="cls-2" d="M1160.45,620.4c8.9,9.12,13.35,21.86,13.35,38.2v71.15h-30.65v-66.99c0-9.63-2.41-17.04-7.22-22.22-4.81-5.18-11.38-7.77-19.7-7.77s-15.14,2.59-20.03,7.77c-4.89,5.18-7.33,12.59-7.33,22.22v66.99h-30.65v-121.28h30.65v15.11c4.08-5.25,9.3-9.38,15.65-12.37,6.35-2.99,13.32-4.49,20.91-4.49,14.45,0,26.12,4.56,35.02,13.68Z"/>
    <path class="cls-2" d="M1222.62,726.35c-7.88-3.57-14.12-8.43-18.72-14.56-4.6-6.13-7.11-12.92-7.55-20.36h30.87c.58,4.67,2.88,8.54,6.9,11.6,4.01,3.06,9.01,4.6,15,4.6s10.4-1.17,13.68-3.5c3.28-2.33,4.93-5.33,4.93-8.98,0-3.94-2.01-6.9-6.02-8.87-4.02-1.97-10.4-4.12-19.16-6.46-9.05-2.19-16.45-4.45-22.22-6.79-5.77-2.33-10.73-5.91-14.89-10.73-4.16-4.82-6.24-11.31-6.24-19.48,0-6.71,1.93-12.84,5.8-18.39,3.87-5.54,9.41-9.92,16.64-13.13,7.22-3.21,15.72-4.82,25.5-4.82,14.45,0,25.97,3.61,34.59,10.84,8.61,7.22,13.35,16.97,14.23,29.22h-29.33c-.44-4.82-2.45-8.65-6.02-11.49-3.58-2.85-8.35-4.27-14.34-4.27-5.55,0-9.82,1.02-12.8,3.06-2.99,2.05-4.49,4.89-4.49,8.54,0,4.09,2.04,7.19,6.13,9.3,4.08,2.12,10.43,4.27,19.05,6.46,8.76,2.19,15.98,4.45,21.67,6.79,5.69,2.34,10.62,5.95,14.78,10.84,4.16,4.89,6.31,11.35,6.46,19.37,0,7-1.94,13.28-5.8,18.82-3.87,5.55-9.42,9.89-16.64,13.03-7.22,3.14-15.65,4.71-25.28,4.71s-18.83-1.79-26.71-5.36Z"/>
    <path class="cls-2" d="M1434.09,678.3h-88.66c.73,8.76,3.79,15.62,9.19,20.58,5.4,4.96,12.04,7.44,19.92,7.44,11.38,0,19.48-4.89,24.3-14.67h33.06c-3.5,11.68-10.22,21.27-20.14,28.79-9.93,7.52-22.11,11.27-36.56,11.27-11.68,0-22.15-2.59-31.41-7.77-9.27-5.18-16.49-12.51-21.67-22-5.18-9.49-7.77-20.43-7.77-32.84s2.55-23.57,7.66-33.06c5.11-9.48,12.26-16.78,21.45-21.89,9.19-5.11,19.77-7.66,31.74-7.66s21.85,2.48,30.98,7.44c9.12,4.96,16.2,12.01,21.23,21.12,5.03,9.12,7.55,19.59,7.55,31.41,0,4.38-.29,8.32-.87,11.82ZM1403.22,657.73c-.15-7.88-2.99-14.19-8.54-18.94-5.55-4.74-12.34-7.11-20.36-7.11-7.59,0-13.98,2.3-19.16,6.9-5.18,4.6-8.36,10.98-9.52,19.15h57.57Z"/>
    <path class="cls-2" d="M1487.94,567.75v161.99h-30.65v-161.99h30.65Z"/>
    <path class="cls-2" d="M1630.01,678.3h-88.66c.73,8.76,3.79,15.62,9.19,20.58,5.4,4.96,12.04,7.44,19.92,7.44,11.38,0,19.48-4.89,24.3-14.67h33.06c-3.5,11.68-10.22,21.27-20.14,28.79-9.93,7.52-22.11,11.27-36.56,11.27-11.68,0-22.15-2.59-31.41-7.77-9.27-5.18-16.49-12.51-21.67-22-5.18-9.49-7.77-20.43-7.77-32.84s2.55-23.57,7.66-33.06c5.11-9.48,12.26-16.78,21.45-21.89,9.19-5.11,19.77-7.66,31.74-7.66s21.85,2.48,30.98,7.44c9.12,4.96,16.2,12.01,21.23,21.12,5.03,9.12,7.55,19.59,7.55,31.41,0,4.38-.29,8.32-.87,11.82ZM1599.14,657.73c-.15-7.88-2.99-14.19-8.54-18.94-5.55-4.74-12.34-7.11-20.36-7.11-7.59,0-13.98,2.3-19.16,6.9-5.18,4.6-8.36,10.98-9.52,19.15h57.57Z"/>
    <path class="cls-2" d="M1720.2,729.75l-24.96-37.65-22.11,37.65h-32.84l39.62-60.86-40.06-60.42h34.59l24.74,37.43,22.33-37.43h32.84l-39.84,60.42,40.28,60.86h-34.59Z"/>
  </g>
</svg>